<svg width="100" height="100" viewBox="0 0 100 100" fill="none" xmlns="http://www.w3.org/2000/svg">
  <path d="M72.23 20.35L54.77 37.81C53.79 38.79 53.79 40.38 54.77 41.36L58.64 45.23C59.62 46.21 61.21 46.21 62.19 45.23L79.65 27.77C80.63 26.79 80.63 25.21 79.65 24.23L75.77 20.35C74.79 19.37 73.21 19.37 72.23 20.35Z" fill="#1D4ED8"/>
  <path d="M52.33 43.83L29.74 66.42C28.26 67.9 26.11 68.61 24.01 68.32L17.5 67.43C16.32 67.27 15.68 65.86 16.4 64.92L20.26 59.83C21.43 58.29 23.16 57.26 25.12 56.93L31.63 55.85C33.73 55.5 35.88 56.12 37.4 57.64L60.01 35.03C60.99 34.05 62.58 34.05 63.56 35.03L64.97 36.44C65.95 37.42 65.95 39.01 64.97 39.99L52.33 43.83Z" fill="#FDBA74"/>
  <circle cx="80" cy="50" r="8" fill="#EF4444"/>
  <path d="M75 50C75 50 77.5 47 80 50C82.5 53 85 50 85 50" stroke="white" strokeWidth="2" strokeLinecap="round"/>
</svg>